<svg width="100" height="100" viewBox="0 0 100 100" fill="none" xmlns="http://www.w3.org/2000/svg">
<rect width="100" height="100" rx="50" fill="#723FEB"/>
<path d="M47.9425 27C48.2159 27.0919 48.4401 27.2282 48.6795 27.2689C51.5112 27.7511 54.075 28.8945 56.3383 30.6976C57.3821 31.5292 58.379 32.4522 59.2672 33.4565C60.4825 34.8307 61.4727 36.3889 62.1646 38.1261C62.4217 38.7715 62.6944 39.4133 62.902 40.0761C63.157 40.8907 62.9051 41.6196 62.2552 42.1489C61.3764 42.8645 59.8946 42.562 59.4646 41.3837C58.9497 39.9731 58.3725 38.5992 57.5301 37.3516C56.2024 35.3855 54.5341 33.8286 52.5071 32.6612C51.0518 31.823 49.5064 31.2804 47.8107 30.9527C45.9465 30.5779 44.1442 30.6287 42.3636 31.034C34.8764 32.7386 29.959 39.5928 30.6727 47.4681C31.1296 52.5101 33.5673 56.3615 37.7015 59.0691C37.793 59.129 37.9212 59.1292 38.0323 59.1573C38.0323 59.1573 38.0262 59.1609 38.0098 59.1891C38.0365 59.2292 38.0797 59.241 38.1229 59.2527C38.8875 59.653 39.3263 60.2405 39.2928 61.1819C39.2684 61.866 38.9722 62.344 38.4441 62.6897C37.847 63.0805 37.2041 63.0999 36.5903 62.7607C34.6783 61.7038 33.0054 60.316 31.5729 58.6441C30.0964 56.9209 28.8856 55.001 28.1742 52.8076C27.7513 51.5038 27.4952 50.1423 27.1605 48.8078C27.1474 48.7556 27.0968 48.7135 27.0273 48.6782C26.991 46.9265 26.991 45.1635 27.0269 43.3723C27.128 43.0876 27.2128 42.8344 27.2553 42.5738C27.6176 40.3496 28.3825 38.2774 29.4855 36.3399C30.5422 34.4838 31.835 32.8147 33.4812 31.486C34.5323 30.6375 35.6232 29.8134 36.7878 29.1498C38.5976 28.1186 40.555 27.4575 42.6188 27.1765C42.6793 27.1682 42.7272 27.061 42.781 27C44.4875 27 46.194 27 47.9425 27Z" fill="#FDFDFD"/>
<path d="M35.1635 74C35.0523 73.9225 35.0018 73.8148 34.9152 73.772C33.8467 73.2442 33.7149 71.7344 34.5141 70.983C37.3705 68.2976 40.2128 65.5989 43.0772 62.9212C44.0576 62.0047 45.0444 61.0859 46.1077 60.2591C47.039 59.5349 48.1711 59.1829 49.3961 59.1301C50.6394 59.0765 51.8498 59.1831 52.9606 59.7591C53.3853 59.9794 53.8016 60.2288 54.1757 60.5179C55.227 61.3304 56.957 61.2957 57.9278 60.3282C59.0701 59.1896 60.2173 58.0553 61.3581 56.9154C62.2952 55.9791 63.2269 55.0379 64.1582 54.0966C64.2511 54.0027 64.327 53.8936 64.408 53.7896C65.0572 52.9559 66.2988 52.7933 67.1285 53.2502C68.1524 53.814 68.2886 55.2886 67.4601 56.117C66.8844 56.6925 66.3063 57.2657 65.7283 57.8391C64.5191 59.0385 63.3154 60.243 62.0972 61.4342C61.3785 62.137 60.6517 62.8337 59.9001 63.5049C59.1943 64.1353 58.2869 64.4378 57.3665 64.5993C55.8482 64.8658 54.3372 64.7861 52.9363 64.08C52.5101 63.8652 52.1021 63.6052 51.7247 63.3201C50.6178 62.4839 48.9695 62.5601 47.9716 63.5107C45.3979 65.9621 42.8065 68.3972 40.2133 70.8303C39.2087 71.7729 38.181 72.6936 37.1613 73.6219C37.0307 73.7408 36.8853 73.8451 36.7778 73.9781C36.2751 74 35.7413 74 35.1635 74Z" fill="#FDFDFD"/>
<path d="M74 56.9365C73.9321 57.0175 73.8342 57.0416 73.8009 57.098C73.2126 58.0946 71.664 58.2863 70.7714 57.5683C70.4508 57.3105 70.1724 56.8419 70.1555 56.459C70.0867 54.9017 70.1377 53.3401 70.1184 51.7804C70.1142 51.4391 70.0483 51.085 69.9319 50.7609C69.5912 49.8121 68.7198 49.5972 67.7843 49.5812C66.092 49.5524 64.3975 49.5407 62.7062 49.5885C62.0001 49.6084 60.9944 48.6901 61 48.0072C61.007 47.1683 61.2399 46.5206 62.088 46.1469C62.279 46.0628 62.5067 46.0113 62.7179 46.0102C64.6849 46.0001 66.652 45.9947 68.619 46.0076C69.9549 46.0164 71.087 46.5339 72.0742 47.3175C72.9671 48.0262 73.5654 48.9205 73.8374 49.9884C73.8465 50.024 73.9056 50.0488 73.9707 50.0489C74 52.311 74 54.6029 74 56.9365Z" fill="#FDFDFD"/>
<path d="M71.1623 74C70.8632 73.7602 70.5563 73.5492 70.3737 73.2725C70.1907 72.9952 70.036 72.6529 70.0332 72.3379C70.0078 69.4568 70.0465 66.5751 70.0001 63.6944C69.9871 62.8875 70.9669 61.9953 71.8789 62C72.8404 62.005 73.4557 62.3737 73.9749 63.025C74.0084 66.3168 74.0084 69.625 73.9749 72.9588C73.6096 73.2739 73.2761 73.5617 72.9491 73.8555C72.9159 73.8854 72.9228 73.951 72.9111 74C72.3437 74 71.7763 74 71.1623 74Z" fill="#FDFDFD"/>
<path d="M63.4535 74C63.0815 73.7585 62.6997 73.5462 62.4728 73.2674C62.2454 72.9882 62.0564 72.6437 62.0511 72.3261C62.0152 70.1732 62.1014 68.0182 62.0013 65.8675C61.9558 64.8904 63.1578 63.9229 64.5578 64.0049C65.6111 64.0666 66.3492 64.3558 66.7992 65.0238C66.9277 65.2144 66.98 65.4498 66.9813 65.6649C66.9941 67.8479 66.9707 70.0312 66.9998 72.2141C67.0091 72.9081 66.6212 73.4023 65.8618 73.7793C65.7636 73.828 65.6741 73.8859 65.6033 73.9698C64.9211 74 64.2163 74 63.4535 74Z" fill="#FDFDFD"/>
<path d="M49.1628 74C48.8654 73.7769 48.5601 73.5807 48.3785 73.3233C48.1967 73.0653 48.0499 72.748 48.0413 72.4536C48.0049 71.2111 48.0941 69.9639 48.0032 68.7253C47.9369 67.8223 48.9258 66.9286 50.0462 67.0045C50.8883 67.0616 51.4766 67.3292 51.8397 67.9452C51.9366 68.1097 51.983 68.3112 51.9848 68.4962C51.9969 69.7808 51.9715 71.0659 51.9996 72.3501C52.0136 72.9916 51.6966 73.4479 51.0893 73.796C51.0108 73.841 50.9393 73.8946 50.8826 73.9721C50.3369 74 49.773 74 49.1628 74Z" fill="#FDFDFD"/>
<path d="M56.1622 74C55.865 73.8005 55.5599 73.625 55.3785 73.3948C55.1966 73.1641 55.0587 72.8817 55.0411 72.6168C54.9951 71.9267 55.096 71.2286 55.0073 70.5432C54.9031 69.7367 55.9248 68.9345 57.0454 69.0042C57.823 69.0527 58.3969 69.2566 58.7716 69.7485C58.9024 69.9201 58.9735 70.1391 58.9803 70.3382C59.0046 71.0543 58.9629 71.7718 58.9981 72.4874C59.0278 73.0896 58.7013 73.5208 58.0465 73.8375C57.9806 73.8694 57.9242 73.9123 57.8816 73.975C57.336 74 56.7723 74 56.1622 74Z" fill="#FDFDFD"/>
<path d="M49.3092 39.6114C50.7493 39.9625 51.1002 41.6142 50.3139 42.6494C49.9357 43.1473 48.8555 43.3854 48.2238 43.1235C47.3836 42.7752 46.5191 42.5341 45.596 42.5738C45.1397 42.5935 44.8503 42.7889 44.7827 43.1569C44.7027 43.5924 44.9052 43.899 45.2863 44.0227C45.6948 44.1554 46.1306 44.255 46.5575 44.2681C48.5768 44.3301 50.5475 45.7287 50.9196 47.9166C51.2684 49.9672 50.4918 51.7831 48.4067 52.8231C48.1497 52.9513 48.0015 53.0476 48.0436 53.3557C48.149 54.128 47.213 55.0198 46.3917 54.9997C45.5717 54.9796 44.9876 54.7011 44.6276 53.9618C44.5767 53.8571 44.5042 53.7295 44.524 53.629C44.6343 53.069 44.2994 52.9701 43.8642 52.8409C43.1325 52.6237 42.4015 52.3678 41.7191 52.0281C41.1357 51.7377 40.8381 50.6883 41.0901 50.0169C41.3527 49.3172 42.0004 48.8457 42.6584 48.8073C43.4276 48.7624 44.0478 49.2049 44.7611 49.306C45.3641 49.3914 45.967 49.4947 46.5735 49.5316C47.0938 49.5633 47.5437 48.9422 47.2897 48.5074C47.1378 48.2473 46.7836 48.0339 46.4804 47.9541C45.9801 47.8223 45.4384 47.8588 44.9303 47.7487C42.9919 47.3287 41.5564 46.2098 41.2 44.2091C40.8146 42.046 41.817 39.9901 44.032 39.1821C44.3743 39.0573 44.5493 38.9207 44.5273 38.5071C44.4972 37.9419 45.1096 37.2601 45.7149 37.0786C46.5924 36.8155 47.5606 37.2298 47.9197 38.0644C48.0254 38.3101 48.0283 38.6087 48.041 38.8849C48.0519 39.1221 48.0893 39.257 48.37 39.3008C48.6807 39.3492 48.977 39.4917 49.3092 39.6114Z" fill="#FDFDFD"/>
</svg>
