<svg width="353" height="353" viewBox="0 0 353 353" fill="none" xmlns="http://www.w3.org/2000/svg">
<g filter="url(#filter0_i_1082_38)">
<path d="M176.5 301.032C242.755 301.032 296.465 247.322 296.465 181.067C296.465 114.812 242.755 61.1021 176.5 61.1021C110.245 61.1021 56.5352 114.812 56.5352 181.067C56.5352 247.322 110.245 301.032 176.5 301.032Z" fill="url(#paint0_linear_1082_38)"/>
</g>
<g filter="url(#filter1_iiii_1082_38)">
<path fill-rule="evenodd" clip-rule="evenodd" d="M177.093 335.185C262.196 335.185 331.186 266.196 331.186 181.093C331.186 95.9898 262.196 27 177.093 27C91.9898 27 23 95.9898 23 181.093C23 266.196 91.9898 335.185 177.093 335.185ZM177.093 301.058C243.348 301.058 297.058 247.348 297.058 181.093C297.058 114.838 243.348 61.1279 177.093 61.1279C110.838 61.1279 57.1279 114.838 57.1279 181.093C57.1279 247.348 110.838 301.058 177.093 301.058Z" fill="url(#paint1_linear_1082_38)"/>
</g>
<path d="M167.838 105C168.71 105.293 169.426 105.728 170.19 105.858C179.227 107.397 187.41 111.046 194.633 116.801C197.964 119.455 201.146 122.401 203.98 125.606C207.859 129.992 211.019 134.965 213.227 140.509C214.048 142.569 214.918 144.617 215.581 146.732C216.395 149.332 215.591 151.658 213.517 153.347C210.712 155.632 205.983 154.666 204.61 150.905C202.967 146.404 201.125 142.019 198.436 138.037C194.199 131.762 188.875 126.794 182.405 123.068C177.761 120.393 172.829 118.661 167.417 117.615C161.467 116.419 155.715 116.581 150.033 117.875C126.137 123.315 110.444 145.19 112.721 170.324C114.179 186.415 121.959 198.707 135.154 207.348C135.446 207.539 135.855 207.54 136.209 207.63C136.209 207.63 136.19 207.641 136.138 207.731C136.223 207.859 136.361 207.897 136.499 207.934C138.939 209.212 140.339 211.087 140.232 214.091C140.154 216.275 139.209 217.8 137.524 218.903C135.618 220.151 133.566 220.212 131.607 219.13C125.505 215.757 120.166 211.328 115.594 205.992C110.882 200.492 107.018 194.365 104.747 187.365C103.398 183.204 102.58 178.859 101.512 174.599C101.47 174.433 101.309 174.299 101.087 174.186C100.971 168.595 100.971 162.968 101.086 157.252C101.408 156.343 101.679 155.535 101.815 154.704C102.971 147.605 105.412 140.992 108.932 134.808C112.305 128.884 116.431 123.557 121.685 119.317C125.039 116.609 128.521 113.979 132.238 111.861C138.014 108.57 144.26 106.46 150.847 105.563C151.04 105.537 151.193 105.195 151.365 105C156.811 105 162.257 105 167.838 105Z" fill="#DC7B3C"/>
<path d="M127.054 255C126.699 254.753 126.538 254.409 126.261 254.272C122.851 252.588 122.431 247.769 124.981 245.371C134.097 236.801 143.168 228.188 152.31 219.642C155.439 216.717 158.588 213.785 161.982 211.146C164.954 208.835 168.567 207.711 172.477 207.543C176.445 207.372 180.308 207.712 183.853 209.55C185.208 210.253 186.537 211.049 187.731 211.972C191.086 214.565 196.608 214.454 199.706 211.367C203.351 207.733 207.013 204.113 210.654 200.475C213.644 197.486 216.618 194.483 219.59 191.478C219.886 191.179 220.129 190.831 220.387 190.499C222.459 187.838 226.422 187.319 229.07 188.777C232.337 190.577 232.772 195.283 230.128 197.927C228.291 199.763 226.446 201.593 224.601 203.422C220.742 207.25 216.9 211.095 213.012 214.896C210.718 217.139 208.399 219.363 206 221.505C203.748 223.517 200.852 224.482 197.914 224.998C193.069 225.848 188.246 225.594 183.775 223.34C182.415 222.655 181.113 221.825 179.909 220.915C176.376 218.246 171.116 218.49 167.93 221.523C159.717 229.347 151.446 237.119 143.17 244.884C139.964 247.892 136.684 250.831 133.43 253.793C133.013 254.173 132.549 254.506 132.206 254.93C130.601 255 128.898 255 127.054 255Z" fill="#DC7B3C"/>
<path d="M251 200.542C250.783 200.801 250.471 200.877 250.364 201.058C248.487 204.238 243.545 204.85 240.696 202.558C239.673 201.736 238.784 200.24 238.73 199.018C238.511 194.048 238.673 189.064 238.612 184.086C238.598 182.997 238.388 181.867 238.016 180.833C236.929 177.805 234.148 177.119 231.163 177.068C225.761 176.976 220.354 176.938 214.956 177.091C212.702 177.155 209.492 174.224 209.511 172.044C209.533 169.367 210.276 167.3 212.983 166.107C213.592 165.839 214.319 165.674 214.993 165.671C221.271 165.639 227.549 165.621 233.826 165.662C238.09 165.69 241.703 167.342 244.854 169.843C247.703 172.105 249.613 174.959 250.481 178.367C250.51 178.481 250.698 178.56 250.906 178.56C251 185.78 251 193.094 251 200.542Z" fill="#DC7B3C"/>
<path d="M241.943 255C240.989 254.235 240.01 253.561 239.427 252.678C238.843 251.793 238.349 250.701 238.34 249.696C238.259 240.501 238.383 231.304 238.234 222.11C238.193 219.534 241.32 216.687 244.23 216.702C247.299 216.718 249.263 217.895 250.92 219.973C251.027 230.479 251.027 241.037 250.92 251.677C249.754 252.683 248.689 253.601 247.646 254.539C247.54 254.634 247.562 254.844 247.525 255C245.714 255 243.903 255 241.943 255Z" fill="#DC7B3C"/>
<path d="M217.341 255C216.154 254.229 214.935 253.552 214.211 252.662C213.485 251.771 212.882 250.671 212.865 249.658C212.75 242.787 213.026 235.909 212.706 229.045C212.561 225.927 216.397 222.839 220.865 223.101C224.227 223.298 226.582 224.221 228.019 226.353C228.429 226.961 228.596 227.712 228.6 228.399C228.641 235.366 228.566 242.334 228.659 249.3C228.688 251.515 227.45 253.093 225.027 254.296C224.714 254.451 224.428 254.636 224.202 254.904C222.025 255 219.775 255 217.341 255Z" fill="#DC7B3C"/>
<path d="M171.732 255C170.783 254.288 169.809 253.662 169.229 252.84C168.649 252.017 168.18 251.004 168.153 250.065C168.037 246.099 168.321 242.119 168.031 238.166C167.82 235.284 170.976 232.432 174.552 232.674C177.239 232.856 179.117 233.71 180.276 235.676C180.585 236.201 180.733 236.844 180.739 237.435C180.777 241.535 180.696 245.636 180.786 249.734C180.831 251.782 179.819 253.238 177.881 254.349C177.63 254.493 177.402 254.664 177.221 254.911C175.479 255 173.68 255 171.732 255Z" fill="#DC7B3C"/>
<path d="M194.071 255C193.122 254.363 192.148 253.803 191.569 253.068C190.989 252.332 190.549 251.431 190.493 250.586C190.346 248.383 190.668 246.155 190.385 243.968C190.052 241.394 193.313 238.833 196.889 239.056C199.371 239.211 201.203 239.862 202.398 241.431C202.816 241.979 203.043 242.678 203.064 243.313C203.142 245.599 203.009 247.889 203.121 250.173C203.216 252.094 202.174 253.471 200.084 254.481C199.874 254.583 199.694 254.72 199.558 254.92C197.817 255 196.018 255 194.071 255Z" fill="#DC7B3C"/>
<path d="M172.2 145.249C176.795 146.37 177.916 151.641 175.406 154.945C174.199 156.534 170.752 157.294 168.735 156.458C166.054 155.346 163.295 154.577 160.349 154.704C158.892 154.766 157.969 155.39 157.753 156.565C157.498 157.954 158.144 158.933 159.361 159.328C160.664 159.751 162.055 160.069 163.417 160.111C169.862 160.309 176.152 164.772 177.339 171.755C178.452 178.3 175.974 184.095 169.319 187.414C168.499 187.823 168.026 188.131 168.16 189.114C168.497 191.579 165.51 194.425 162.888 194.361C160.271 194.297 158.407 193.408 157.258 191.048C157.096 190.714 156.864 190.307 156.928 189.986C157.28 188.199 156.211 187.883 154.822 187.471C152.487 186.778 150.154 185.961 147.976 184.877C146.114 183.95 145.164 180.601 145.968 178.458C146.807 176.225 148.874 174.72 150.974 174.598C153.428 174.454 155.408 175.867 157.684 176.189C159.609 176.462 161.533 176.792 163.468 176.909C165.129 177.01 166.565 175.028 165.754 173.641C165.269 172.81 164.139 172.13 163.171 171.875C161.575 171.454 159.846 171.571 158.224 171.219C152.038 169.879 147.456 166.308 146.319 159.923C145.089 153.019 148.288 146.458 155.357 143.879C156.45 143.481 157.008 143.045 156.938 141.725C156.842 139.921 158.797 137.745 160.728 137.166C163.529 136.326 166.619 137.648 167.765 140.312C168.102 141.096 168.111 142.049 168.152 142.93C168.187 143.688 168.306 144.118 169.202 144.258C170.194 144.412 171.139 144.867 172.2 145.249Z" fill="#DC7B3C"/>
<path d="M171.838 102C172.71 102.293 173.426 102.728 174.19 102.858C183.227 104.397 191.41 108.046 198.633 113.801C201.964 116.455 205.146 119.401 207.98 122.606C211.859 126.992 215.019 131.965 217.227 137.509C218.048 139.569 218.918 141.617 219.581 143.732C220.395 146.332 219.591 148.658 217.517 150.347C214.712 152.632 209.983 151.666 208.61 147.905C206.967 143.404 205.125 139.019 202.436 135.037C198.199 128.762 192.875 123.794 186.405 120.068C181.761 117.393 176.829 115.661 171.417 114.615C165.467 113.419 159.715 113.581 154.033 114.875C130.137 120.315 114.444 142.19 116.721 167.324C118.179 183.415 125.959 195.707 139.154 204.348C139.446 204.539 139.855 204.54 140.209 204.63C140.209 204.63 140.19 204.641 140.138 204.731C140.223 204.859 140.361 204.897 140.499 204.934C142.939 206.212 144.339 208.087 144.232 211.091C144.154 213.275 143.209 214.8 141.524 215.903C139.618 217.151 137.566 217.212 135.607 216.13C129.505 212.757 124.166 208.328 119.594 202.992C114.882 197.492 111.018 191.365 108.747 184.365C107.398 180.204 106.58 175.859 105.512 171.599C105.47 171.433 105.309 171.299 105.087 171.186C104.971 165.595 104.971 159.968 105.086 154.252C105.408 153.343 105.679 152.535 105.815 151.704C106.971 144.605 109.412 137.992 112.932 131.808C116.305 125.884 120.431 120.557 125.685 116.317C129.039 113.609 132.521 110.979 136.238 108.861C142.014 105.57 148.26 103.46 154.847 102.563C155.04 102.537 155.193 102.195 155.365 102C160.811 102 166.257 102 171.838 102Z" fill="url(#paint2_linear_1082_38)"/>
<path d="M131.054 252C130.699 251.753 130.538 251.409 130.261 251.272C126.851 249.588 126.431 244.769 128.981 242.371C138.097 233.801 147.168 225.188 156.31 216.642C159.439 213.717 162.588 210.785 165.982 208.146C168.954 205.835 172.567 204.711 176.477 204.543C180.445 204.372 184.308 204.712 187.853 206.55C189.208 207.253 190.537 208.049 191.731 208.972C195.086 211.565 200.608 211.454 203.706 208.367C207.351 204.733 211.013 201.113 214.654 197.475C217.644 194.486 220.618 191.483 223.59 188.478C223.886 188.179 224.129 187.831 224.387 187.499C226.459 184.838 230.422 184.319 233.07 185.777C236.337 187.577 236.772 192.283 234.128 194.927C232.291 196.763 230.446 198.593 228.601 200.422C224.742 204.25 220.9 208.095 217.012 211.896C214.718 214.139 212.399 216.363 210 218.505C207.748 220.517 204.852 221.482 201.914 221.998C197.069 222.848 192.246 222.594 187.775 220.34C186.415 219.655 185.113 218.825 183.909 217.915C180.376 215.246 175.116 215.49 171.93 218.523C163.717 226.347 155.446 234.119 147.17 241.884C143.964 244.892 140.684 247.831 137.43 250.793C137.013 251.173 136.549 251.506 136.206 251.93C134.601 252 132.898 252 131.054 252Z" fill="#FFC248"/>
<path d="M255 197.542C254.783 197.801 254.471 197.877 254.364 198.058C252.487 201.238 247.545 201.85 244.696 199.558C243.673 198.736 242.784 197.24 242.73 196.018C242.511 191.048 242.673 186.064 242.612 181.086C242.598 179.997 242.388 178.867 242.016 177.833C240.929 174.805 238.148 174.119 235.163 174.068C229.761 173.976 224.354 173.938 218.956 174.091C216.702 174.155 213.492 171.224 213.511 169.044C213.533 166.367 214.276 164.3 216.983 163.107C217.592 162.839 218.319 162.674 218.993 162.671C225.271 162.639 231.549 162.621 237.826 162.662C242.09 162.69 245.703 164.342 248.854 166.843C251.703 169.105 253.613 171.959 254.481 175.367C254.51 175.481 254.698 175.56 254.906 175.56C255 182.78 255 190.094 255 197.542Z" fill="#FFC248"/>
<path d="M245.943 252C244.989 251.235 244.01 250.561 243.427 249.678C242.843 248.793 242.349 247.701 242.34 246.696C242.259 237.501 242.383 228.304 242.234 219.11C242.193 216.534 245.32 213.687 248.23 213.702C251.299 213.718 253.263 214.895 254.92 216.973C255.027 227.479 255.027 238.037 254.92 248.677C253.754 249.683 252.69 250.601 251.646 251.539C251.54 251.634 251.562 251.844 251.525 252C249.714 252 247.903 252 245.943 252Z" fill="#FFC248"/>
<path d="M221.341 252C220.154 251.229 218.935 250.552 218.211 249.662C217.485 248.771 216.882 247.671 216.865 246.658C216.75 239.787 217.026 232.909 216.706 226.045C216.561 222.927 220.397 219.839 224.865 220.101C228.227 220.298 230.582 221.221 232.019 223.353C232.429 223.961 232.596 224.712 232.6 225.399C232.641 232.366 232.566 239.334 232.659 246.3C232.688 248.515 231.45 250.093 229.027 251.296C228.714 251.451 228.428 251.636 228.202 251.904C226.025 252 223.775 252 221.341 252Z" fill="#FFC248"/>
<path d="M175.732 252C174.783 251.288 173.809 250.662 173.229 249.84C172.649 249.017 172.18 248.004 172.153 247.065C172.037 243.099 172.321 239.119 172.031 235.166C171.82 232.284 174.976 229.432 178.552 229.674C181.239 229.856 183.117 230.71 184.276 232.676C184.585 233.201 184.733 233.844 184.739 234.435C184.777 238.535 184.696 242.636 184.786 246.734C184.831 248.782 183.819 250.238 181.881 251.349C181.63 251.493 181.402 251.664 181.221 251.911C179.479 252 177.68 252 175.732 252Z" fill="#FFC248"/>
<path d="M198.071 252C197.122 251.363 196.148 250.803 195.569 250.068C194.989 249.332 194.549 248.431 194.493 247.586C194.346 245.383 194.668 243.155 194.385 240.968C194.052 238.394 197.313 235.833 200.889 236.056C203.371 236.211 205.203 236.862 206.398 238.431C206.816 238.979 207.043 239.678 207.064 240.313C207.142 242.599 207.009 244.889 207.121 247.173C207.216 249.094 206.174 250.471 204.084 251.481C203.874 251.583 203.694 251.72 203.558 251.92C201.817 252 200.018 252 198.071 252Z" fill="#FFC248"/>
<path d="M176.2 142.249C180.795 143.37 181.916 148.641 179.406 151.945C178.199 153.534 174.752 154.294 172.735 153.458C170.054 152.346 167.295 151.577 164.349 151.704C162.892 151.766 161.969 152.39 161.753 153.565C161.498 154.954 162.144 155.933 163.361 156.328C164.664 156.751 166.055 157.069 167.417 157.111C173.862 157.309 180.152 161.772 181.339 168.755C182.452 175.3 179.974 181.095 173.319 184.414C172.499 184.823 172.026 185.131 172.16 186.114C172.497 188.579 169.51 191.425 166.888 191.361C164.271 191.297 162.407 190.408 161.258 188.048C161.096 187.714 160.864 187.307 160.928 186.986C161.28 185.199 160.211 184.883 158.822 184.471C156.487 183.778 154.154 182.961 151.976 181.877C150.114 180.95 149.164 177.601 149.968 175.458C150.807 173.225 152.874 171.72 154.974 171.598C157.428 171.454 159.408 172.867 161.684 173.189C163.609 173.462 165.533 173.792 167.468 173.909C169.129 174.01 170.565 172.028 169.754 170.641C169.269 169.81 168.139 169.13 167.171 168.875C165.575 168.454 163.846 168.571 162.224 168.219C156.038 166.879 151.456 163.308 150.319 156.923C149.089 150.019 152.288 143.458 159.357 140.879C160.45 140.481 161.008 140.045 160.938 138.725C160.842 136.921 162.797 134.745 164.728 134.166C167.529 133.326 170.619 134.648 171.765 137.312C172.102 138.096 172.111 139.049 172.152 139.93C172.187 140.688 172.306 141.118 173.202 141.258C174.194 141.412 175.139 141.867 176.2 142.249Z" fill="url(#paint3_linear_1082_38)"/>
<defs>
<filter id="filter0_i_1082_38" x="56.2852" y="61.1021" width="240.18" height="240.18" filterUnits="userSpaceOnUse" color-interpolation-filters="sRGB">
<feFlood flood-opacity="0" result="BackgroundImageFix"/>
<feBlend mode="normal" in="SourceGraphic" in2="BackgroundImageFix" result="shape"/>
<feColorMatrix in="SourceAlpha" type="matrix" values="0 0 0 0 0 0 0 0 0 0 0 0 0 0 0 0 0 0 127 0" result="hardAlpha"/>
<feOffset dx="-0.25" dy="0.25"/>
<feGaussianBlur stdDeviation="0.5"/>
<feComposite in2="hardAlpha" operator="arithmetic" k2="-1" k3="1"/>
<feColorMatrix type="matrix" values="0 0 0 0 0.831373 0 0 0 0 0.45098 0 0 0 0 0.196078 0 0 0 1 0"/>
<feBlend mode="normal" in2="shape" result="effect1_innerShadow_1082_38"/>
</filter>
<filter id="filter1_iiii_1082_38" x="22.7" y="26.7" width="308.786" height="308.785" filterUnits="userSpaceOnUse" color-interpolation-filters="sRGB">
<feFlood flood-opacity="0" result="BackgroundImageFix"/>
<feBlend mode="normal" in="SourceGraphic" in2="BackgroundImageFix" result="shape"/>
<feColorMatrix in="SourceAlpha" type="matrix" values="0 0 0 0 0 0 0 0 0 0 0 0 0 0 0 0 0 0 127 0" result="hardAlpha"/>
<feOffset dx="0.3" dy="0.3"/>
<feGaussianBlur stdDeviation="0.3"/>
<feComposite in2="hardAlpha" operator="arithmetic" k2="-1" k3="1"/>
<feColorMatrix type="matrix" values="0 0 0 0 0.886275 0 0 0 0 0.662745 0 0 0 0 0.235294 0 0 0 1 0"/>
<feBlend mode="normal" in2="shape" result="effect1_innerShadow_1082_38"/>
<feColorMatrix in="SourceAlpha" type="matrix" values="0 0 0 0 0 0 0 0 0 0 0 0 0 0 0 0 0 0 127 0" result="hardAlpha"/>
<feOffset dx="0.3" dy="-0.3"/>
<feGaussianBlur stdDeviation="0.3"/>
<feComposite in2="hardAlpha" operator="arithmetic" k2="-1" k3="1"/>
<feColorMatrix type="matrix" values="0 0 0 0 0.956863 0 0 0 0 0.607843 0 0 0 0 0.294118 0 0 0 1 0"/>
<feBlend mode="normal" in2="effect1_innerShadow_1082_38" result="effect2_innerShadow_1082_38"/>
<feColorMatrix in="SourceAlpha" type="matrix" values="0 0 0 0 0 0 0 0 0 0 0 0 0 0 0 0 0 0 127 0" result="hardAlpha"/>
<feOffset dy="-0.3"/>
<feGaussianBlur stdDeviation="0.3"/>
<feComposite in2="hardAlpha" operator="arithmetic" k2="-1" k3="1"/>
<feColorMatrix type="matrix" values="0 0 0 0 0.956863 0 0 0 0 0.607843 0 0 0 0 0.294118 0 0 0 1 0"/>
<feBlend mode="normal" in2="effect2_innerShadow_1082_38" result="effect3_innerShadow_1082_38"/>
<feColorMatrix in="SourceAlpha" type="matrix" values="0 0 0 0 0 0 0 0 0 0 0 0 0 0 0 0 0 0 127 0" result="hardAlpha"/>
<feOffset dx="-0.3" dy="0.3"/>
<feGaussianBlur stdDeviation="0.3"/>
<feComposite in2="hardAlpha" operator="arithmetic" k2="-1" k3="1"/>
<feColorMatrix type="matrix" values="0 0 0 0 1 0 0 0 0 0.882353 0 0 0 0 0.337255 0 0 0 1 0"/>
<feBlend mode="normal" in2="effect3_innerShadow_1082_38" result="effect4_innerShadow_1082_38"/>
</filter>
<linearGradient id="paint0_linear_1082_38" x1="127.554" y1="241.055" x2="257.172" y2="77.649" gradientUnits="userSpaceOnUse">
<stop stop-color="#F19D48"/>
<stop offset="1" stop-color="#E89A44"/>
</linearGradient>
<linearGradient id="paint1_linear_1082_38" x1="177.093" y1="26.9966" x2="177.093" y2="335.188" gradientUnits="userSpaceOnUse">
<stop stop-color="#FFC444"/>
<stop offset="1" stop-color="#FFC24B"/>
</linearGradient>
<linearGradient id="paint2_linear_1082_38" x1="162.447" y1="102" x2="162.447" y2="216.894" gradientUnits="userSpaceOnUse">
<stop offset="0.46" stop-color="#FFCA3F"/>
<stop offset="1" stop-color="#FFCA3F"/>
</linearGradient>
<linearGradient id="paint3_linear_1082_38" x1="165.638" y1="133.915" x2="165.638" y2="191.362" gradientUnits="userSpaceOnUse">
<stop offset="0.07" stop-color="#FFC34C"/>
<stop offset="1" stop-color="#FFC34C"/>
</linearGradient>
</defs>
</svg>
