<svg width="108" height="108" viewBox="0 0 108 108" fill="none" xmlns="http://www.w3.org/2000/svg">
<rect width="108" height="108" fill="#723FEB"/>
<path d="M51.3416 24C51.6985 24.1174 51.9912 24.2915 52.3038 24.3436C56.0007 24.9597 59.348 26.4207 62.3028 28.7248C63.6655 29.7873 64.9671 30.9667 66.1266 32.25C67.7133 34.0059 69.0061 35.997 69.9093 38.2166C70.245 39.0414 70.6011 39.8614 70.872 40.7083C71.205 41.7493 70.8761 42.6806 70.0277 43.3569C68.8803 44.2714 66.9457 43.8848 66.3843 42.3791C65.7121 40.5768 64.9586 38.8212 63.8588 37.2271C62.1254 34.7148 59.9472 32.7255 57.3009 31.2337C55.401 30.1627 53.3833 29.4694 51.1695 29.0507C48.7356 28.5718 46.3827 28.6366 44.0581 29.1546C34.2831 31.3326 27.8632 40.0908 28.7949 50.1537C29.3914 56.5962 32.574 61.5175 37.9714 64.9771C38.0909 65.0537 38.2582 65.054 38.4033 65.0898C38.4033 65.0898 38.3953 65.0945 38.3739 65.1306C38.4088 65.1817 38.4652 65.1968 38.5215 65.2118C39.5198 65.7233 40.0927 66.474 40.0489 67.6768C40.017 68.5511 39.6303 69.1617 38.9409 69.6034C38.1614 70.1029 37.322 70.1277 36.5207 69.6942C34.0244 68.3437 31.8404 66.5705 29.9701 64.4341C28.0425 62.2323 26.4618 59.7791 25.5329 56.9764C24.9808 55.3104 24.6465 53.5708 24.2095 51.8655C24.1925 51.7989 24.1264 51.7451 24.0357 51.6999C23.9882 49.4616 23.9882 47.2089 24.0351 44.9202C24.1671 44.5563 24.2779 44.2328 24.3333 43.8998C24.8064 41.0579 25.8049 38.41 27.2449 35.9343C28.6245 33.5626 30.3124 31.4299 32.4616 29.7321C33.8339 28.6479 35.2581 27.5949 36.7786 26.747C39.1413 25.4293 41.6967 24.5846 44.3911 24.2255C44.4702 24.2149 44.5328 24.078 44.603 24C46.8309 24 49.0588 24 51.3416 24Z" fill="#FDFDFD"/>
<path d="M34.4715 84C34.3308 83.9003 34.267 83.7619 34.1575 83.7069C32.8061 83.0282 32.6394 81.087 33.6502 80.121C37.2626 76.6683 40.8573 73.1986 44.48 69.7559C45.7199 68.5775 46.9679 67.3962 48.3127 66.3331C49.4905 65.402 50.9222 64.9494 52.4715 64.8815C54.0439 64.8126 55.5747 64.9497 56.9796 65.6903C57.5167 65.9735 58.0433 66.2942 58.5164 66.6659C59.846 67.7106 62.0339 67.6659 63.2616 66.422C64.7063 64.9581 66.1572 63.4997 67.6 62.0341C68.7851 60.8302 69.9634 59.6202 71.1413 58.4099C71.2587 58.2892 71.3548 58.1489 71.4572 58.0152C72.2783 56.9433 73.8485 56.7343 74.8978 57.3217C76.1927 58.0465 76.365 59.9425 75.3171 61.0076C74.5892 61.7475 73.858 62.4845 73.127 63.2216C71.5976 64.7638 70.0754 66.3124 68.5346 67.844C67.6257 68.7476 66.7065 69.6433 65.7561 70.5063C64.8634 71.3168 63.7158 71.7057 62.5518 71.9134C60.6316 72.256 58.7206 72.1535 56.9488 71.2457C56.4099 70.9695 55.8939 70.6352 55.4166 70.2687C54.0167 69.1936 51.9321 69.2915 50.6699 70.5137C47.415 73.6656 44.1377 76.7963 40.858 79.9247C39.5875 81.1366 38.2877 82.3203 36.9981 83.5138C36.833 83.6667 36.649 83.8009 36.5132 83.9718C35.8774 84 35.2022 84 34.4715 84Z" fill="#FDFDFD"/>
<path d="M84 61.5821C83.9217 61.69 83.8087 61.7221 83.7702 61.7974C83.0915 63.1261 81.3047 63.3817 80.2747 62.4244C79.9048 62.0806 79.5835 61.4559 79.564 60.9454C79.4847 58.8689 79.5435 56.7868 79.5212 54.7072C79.5164 54.2521 79.4403 53.78 79.306 53.3479C78.9129 52.0829 77.9075 51.7963 76.8281 51.775C74.8753 51.7365 72.9202 51.721 70.9686 51.7847C70.1539 51.8112 68.9935 50.5869 69 49.6763C69.0081 48.5577 69.2768 47.6941 70.2554 47.1959C70.4757 47.0837 70.7385 47.0151 70.9822 47.0137C73.2518 47.0001 75.5215 46.9929 77.7911 47.0101C79.3326 47.0218 80.6389 47.7119 81.7779 48.7566C82.8082 49.7016 83.4985 50.894 83.8124 52.3178C83.8229 52.3653 83.891 52.3984 83.9661 52.3986C84 55.4147 84 58.4705 84 61.5821Z" fill="#FDFDFD"/>
<path d="M80.4528 84C80.079 83.7003 79.6954 83.4366 79.4671 83.0906C79.2384 82.744 79.045 82.3161 79.0415 81.9224C79.0098 78.3211 79.0582 74.7189 79.0002 71.1181C78.9839 70.1093 80.2087 68.9941 81.3486 69C82.5505 69.0063 83.3197 69.4671 83.9686 70.2812C84.0105 74.396 84.0105 78.5313 83.9686 82.6985C83.512 83.0924 83.0951 83.4522 82.6864 83.8194C82.6449 83.8567 82.6535 83.9387 82.6389 84C81.9297 84 81.2204 84 80.4528 84Z" fill="#FDFDFD"/>
<path d="M71.4535 84C71.0815 83.6861 70.6997 83.41 70.4728 83.0477C70.2454 82.6847 70.0564 82.2369 70.0511 81.8239C70.0152 79.0252 70.1014 76.2237 70.0013 73.4277C69.9558 72.1575 71.1578 70.8997 72.5578 71.0063C73.6111 71.0866 74.3492 71.4626 74.7992 72.331C74.9277 72.5788 74.98 72.8847 74.9813 73.1644C74.9941 76.0023 74.9707 78.8405 74.9998 81.6783C75.0091 82.5805 74.6212 83.223 73.8618 83.713C73.7636 83.7764 73.6741 83.8517 73.6033 83.9608C72.9211 84 72.2163 84 71.4535 84Z" fill="#FDFDFD"/>
<path d="M52.4535 84C52.0817 83.6813 51.7001 83.401 51.4732 83.0332C51.2458 82.6647 51.0624 82.2114 51.0516 81.7908C51.0062 80.0158 51.1176 78.2341 51.0039 76.4647C50.9211 75.1747 52.1572 73.898 53.5577 74.0064C54.6104 74.0879 55.3458 74.4703 55.7996 75.3503C55.9208 75.5852 55.9788 75.8732 55.981 76.1375C55.9962 77.9726 55.9643 79.8084 55.9994 81.643C56.017 82.5594 55.6208 83.2113 54.8617 83.7086C54.7635 83.7729 54.6741 83.8494 54.6033 83.9601C53.9211 84 53.2163 84 52.4535 84Z" fill="#FDFDFD"/>
<path d="M62.7433 84C62.2974 83.6808 61.8399 83.4 61.5677 83.0317C61.2949 82.6626 61.0881 82.2108 61.0616 81.7869C60.9927 80.6827 61.1439 79.5658 61.011 78.4691C60.8546 77.1787 62.3872 75.8951 64.0681 76.0068C65.2345 76.0843 66.0953 76.4106 66.6574 77.1976C66.8536 77.4722 66.9603 77.8226 66.9704 78.1411C67.0069 79.2868 66.9443 80.435 66.9972 81.5799C67.0417 82.5433 66.552 83.2333 65.5697 83.74C65.4709 83.791 65.3863 83.8597 65.3224 83.96C64.504 84 63.6584 84 62.7433 84Z" fill="#FDFDFD"/>
<path d="M53.2948 39.4819C55.5988 39.95 56.1604 42.1522 54.9022 43.5326C54.2972 44.1965 52.5689 44.5138 51.558 44.1647C50.2138 43.7003 48.8306 43.3788 47.3536 43.4318C46.6235 43.458 46.1605 43.7186 46.0524 44.2092C45.9243 44.7898 46.2484 45.1987 46.8581 45.3637C47.5117 45.5405 48.2089 45.6733 48.892 45.6908C52.1229 45.7734 55.276 47.6382 55.8714 50.5554C56.4294 53.2896 55.1868 55.7108 51.8507 57.0975C51.4395 57.2684 51.2025 57.3968 51.2697 57.8076C51.4384 58.8373 49.9409 60.0264 48.6267 59.9996C47.3148 59.9728 46.3802 59.6014 45.8042 58.6157C45.7227 58.4762 45.6068 58.3059 45.6384 58.1719C45.8149 57.4253 45.2791 57.2935 44.5828 57.1212C43.412 56.8316 42.2424 56.4904 41.1506 56.0375C40.2172 55.6503 39.741 54.251 40.1442 53.3558C40.5644 52.423 41.6007 51.7942 42.6535 51.743C43.8842 51.6831 44.8766 52.2733 46.0178 52.408C46.9825 52.5219 47.9472 52.6596 48.9175 52.7088C49.75 52.751 50.4699 51.923 50.0635 51.3432C49.8204 50.9964 49.2537 50.7119 48.7686 50.6054C47.9682 50.4298 47.1014 50.4784 46.2884 50.3316C43.187 49.7716 40.8902 48.2797 40.3199 45.6121C39.7034 42.7281 41.3073 39.9868 44.8513 38.9095C45.3989 38.743 45.6789 38.5609 45.6437 38.0095C45.5956 37.2559 46.5754 36.3468 47.5438 36.1048C48.9479 35.7541 50.497 36.3064 51.0715 37.4192C51.2406 37.7468 51.2452 38.145 51.2656 38.5132C51.283 38.8295 51.3429 39.0093 51.792 39.0677C52.2891 39.1322 52.7632 39.3223 53.2948 39.4819Z" fill="#FDFDFD"/>
</svg>
